<svg xmlns="http://www.w3.org/2000/svg" version="1.1" xmlns:xlink="http://www.w3.org/1999/xlink" xmlns:svgjs="http://svgjs.dev/svgjs" width="1170" height="2532" preserveAspectRatio="none" viewBox="0 0 1170 2532"><g mask="url(&quot;#SvgjsMask1141&quot;)" fill="none"><rect width="1170" height="2532" x="0" y="0" fill="#0e2a47"></rect><path d="M172.44429854387278 466.77948605172594L-95.2768707924086 480.55432595122113 28.904399509400577 679.2859006753863z" fill="rgba(28, 83, 142, 0.4)" class="triangle-float2"></path><path d="M167.7 647.58 a250.37 250.37 0 1 0 500.74 0 a250.37 250.37 0 1 0 -500.74 0z" fill="rgba(28, 83, 142, 0.4)" class="triangle-float3"></path><path d="M866.5642079266863 1728.8393734180572L1043.343605780684 1476.3722287397993 790.8764611024259 1299.5928308858017 614.0970632484284 1552.0599755640596z" fill="rgba(28, 83, 142, 0.4)" class="triangle-float1"></path><path d="M1103.506383507121 1702.6347812390118L972.2313651680853 1882.9577016736607 1165.7552555498132 1906.7194475784029z" fill="rgba(28, 83, 142, 0.4)" class="triangle-float1"></path><path d="M1370.211339235916 1342.30854811155L1123.456968754882 1169.5292778145385 950.6776984578706 1416.2836482955727 1197.4320689389046 1589.062918592584z" fill="rgba(28, 83, 142, 0.4)" class="triangle-float1"></path><path d="M364.9431890980702 294.4337088443992L479.4258967562198 49.53437030670699 243.68468669801413 66.01900156978277z" fill="rgba(28, 83, 142, 0.4)" class="triangle-float2"></path><path d="M540.86 321.47 a358.64 358.64 0 1 0 717.28 0 a358.64 358.64 0 1 0 -717.28 0z" fill="rgba(28, 83, 142, 0.4)" class="triangle-float2"></path><path d="M212.91 218.93 a234.67 234.67 0 1 0 469.34 0 a234.67 234.67 0 1 0 -469.34 0z" fill="rgba(28, 83, 142, 0.4)" class="triangle-float1"></path><path d="M349.0302969772455 1535.4511124431492L640.871987216844 1417.5394157942912 522.960290567986 1125.6977255546926 231.1186003283875 1243.6094222035508z" fill="rgba(28, 83, 142, 0.4)" class="triangle-float2"></path><path d="M845.79 2145.53 a266.94 266.94 0 1 0 533.88 0 a266.94 266.94 0 1 0 -533.88 0z" fill="rgba(28, 83, 142, 0.4)" class="triangle-float2"></path><path d="M564.4360593353292 1847.3557323693308L464.8325332954296 2106.8317888608176 823.912115826816 1946.9592584092304z" fill="rgba(28, 83, 142, 0.4)" class="triangle-float2"></path><path d="M656.9823701357788 2093.2489285001548L683.0309588318364 1959.2405569134926 468.99410710381426 1987.1718596627372z" fill="rgba(28, 83, 142, 0.4)" class="triangle-float3"></path><path d="M662.7215657549079 2187.677885698458L489.8290147934468 2434.0938814532783 751.5258114859582 2461.599323141122z" fill="rgba(28, 83, 142, 0.4)" class="triangle-float2"></path><path d="M943.437574359763 1108.2107703223605L791.325990265158 1250.0571172668774 933.1723372096747 1402.1687013614824 1085.2839213042798 1260.3223544169655z" fill="rgba(28, 83, 142, 0.4)" class="triangle-float1"></path><path d="M461.5147577474948 1084.6548930026247L160.71313281447544 969.1879675106262 346.04783225549625 1385.4565179356441z" fill="rgba(28, 83, 142, 0.4)" class="triangle-float2"></path></g><defs><mask id="SvgjsMask1141"><rect width="1170" height="2532" fill="#ffffff"></rect></mask></defs></svg>