<?xml version="1.0" encoding="iso-8859-1"?>
<!-- Uploaded to: SVG Repo, www.svgrepo.com, Generator: SVG Repo Mixer Tools -->
<svg version="1.1" id="Layer_1" xmlns="http://www.w3.org/2000/svg" xmlns:xlink="http://www.w3.org/1999/xlink" 
	 viewBox="0 0 512 512" xml:space="preserve">
<rect x="188.125" y="50.751" style="fill:#ECEDEF;" width="323.875" height="392.797"/>
<g>
	<path style="fill:#509FE8;" d="M512,436.109H188.125v33.67c0,23.318,18.903,42.221,42.221,42.221h239.432
		C493.097,512,512,493.097,512,469.779V436.109z"/>
	<path style="fill:#509FE8;" d="M469.779,0H230.347c-23.318,0-42.221,18.903-42.221,42.221v25.653H512V42.221
		C512,18.903,493.097,0,469.779,0z"/>
</g>
<path style="fill:#D9DCDF;" d="M213.244,469.779V42.221C213.244,18.941,232.185,0,255.466,0h-25.119
	c-23.281,0-42.221,18.941-42.221,42.221v427.557c0,23.28,18.941,42.221,42.221,42.221h25.119
	C232.185,512,213.244,493.059,213.244,469.779z"/>
<g>
	<path style="fill:#4D8CCF;" d="M213.244,469.779v-33.67h-25.119v33.67c0,23.318,18.903,42.221,42.221,42.221h25.119
		C232.148,512,213.244,493.097,213.244,469.779z"/>
	<path style="fill:#4D8CCF;" d="M255.466,0h-25.119c-23.318,0-42.221,18.903-42.221,42.221v25.653h25.119V42.221
		C213.244,18.903,232.148,0,255.466,0z"/>
	<path style="fill:#4D8CCF;" d="M358.614,477.795h-17.102c-4.427,0-8.017-3.588-8.017-8.017s3.589-8.017,8.017-8.017h17.102
		c4.427,0,8.017,3.588,8.017,8.017S363.041,477.795,358.614,477.795z"/>
</g>
<g>
	<path style="fill:#FFC44F;" d="M307.307,85.511H42.221C18.941,85.511,0,104.452,0,127.733v188.125
		c0,23.281,18.941,42.221,42.221,42.221h168.351l66.271,49.704c5.192,3.893,12.827,0.049,12.827-6.413v-43.29h17.637
		c23.281,0,42.221-18.941,42.221-42.221V127.733C349.528,104.452,330.587,85.511,307.307,85.511z"/>
	<path style="fill:#FFC44F;" d="M161.937,221.261c-4.924,0-9.086,6.119-9.086,13.361s4.161,13.361,9.086,13.361
		c4.924,0,9.086-6.119,9.086-13.361S166.862,221.261,161.937,221.261z"/>
</g>
<path style="fill:#C6803F;" d="M223.179,206.615c-2.663-7.547-6.824-14.3-12.345-19.819c-10.172-10.172-24.499-15.773-40.345-15.773
	c-21.176,0-42.518,9.33-54.617,27.437L0,140.287v17.94l108.923,54.686c-1.996,6.212-3.103,13.093-3.103,20.64
	c0,42.229,33.522,61.461,64.668,61.461c4.427,0,8.017-3.588,8.017-8.017s-3.589-8.017-8.017-8.017
	c-24.208,0-48.635-14.047-48.635-45.428c0-7.679,1.469-14.341,4.006-20.049c0.177-0.268,0.348-0.543,0.495-0.839
	c0.189-0.381,0.336-0.771,0.461-1.164c8.488-16.66,26.551-24.445,43.673-24.445c23.975,0,40.084,16.108,40.084,40.084
	c0,14.027-2.31,21.057-8.238,25.074c-4.304,2.916-10.361,4.044-15.278,4.388v-51.909c0-4.428-3.589-8.017-8.017-8.017
	s-8.017,3.588-8.017,8.017v2.532c-2.82-1.285-5.882-1.998-9.086-1.998c-13.851,0-25.119,13.187-25.119,29.395
	s11.268,29.395,25.119,29.395c3.203,0,6.266-0.713,9.086-1.998v2.532c0,4.099,3.092,7.538,7.169,7.972
	c2.012,0.214,20.04,1.836,33.136-7.035c13.463-9.121,15.278-24.503,15.278-38.348c0-1.394-0.059-2.772-0.145-4.14l123.068-64.594
	v-18.107L223.179,206.615z M161.937,247.983c-4.924,0-9.086-6.119-9.086-13.361s4.161-13.361,9.086-13.361
	c4.924,0,9.086,6.119,9.086,13.361S166.862,247.983,161.937,247.983z"/>
<path style="fill:#AFCA62;" d="M469.779,128.267h-9.086V93.528c0-4.428-3.589-8.017-8.017-8.017c-4.427,0-8.017,3.588-8.017,8.017
	v34.739h-9.647c0.012-0.177,0.027-0.354,0.027-0.534v-25.653c0-4.428-3.589-8.017-8.017-8.017c-4.427,0-8.017,3.588-8.017,8.017
	v25.653c0,0.181,0.015,0.357,0.027,0.534h-9.647V110.63c0-4.428-3.589-8.017-8.017-8.017c-4.427,0-8.017,3.588-8.017,8.017v17.637
	h-9.086c-4.427,0-8.017,3.588-8.017,8.017c0,4.428,3.589,8.017,8.017,8.017h85.511c4.427,0,8.017-3.588,8.017-8.017
	C477.795,131.855,474.206,128.267,469.779,128.267z"/>
</svg>